<svg xmlns="http://www.w3.org/2000/svg" xml:space="preserve" fill-rule="evenodd" stroke-linejoin="round" stroke-miterlimit="2" clip-rule="evenodd" viewBox="0 0 1641 1844"><path d="M291.7 286 667 1064.2s155.2-471.4 153.5-468c-1.6 3.3-528.7-310-528.7-310Z"/><path d="m475.3.7 336.5 580.6-2 13.9 10.6.9v-50.7L512 0l-36.6.7Z"/><path d="m1349 286-375 778S818.7 592.7 820.4 596c1.6 3.3 528.6-310 528.6-310Z"/><path d="M1165.4.7 828.8 581.3l2 13.8-10.5 1v-50.7L1128.8 0l36.6.7Z"/><path fill-rule="nonzero" d="M69.3 1246.3c0-26.3-9-39.5-27.2-39.5-5 0-8.7.4-11.2 1a78.9 78.9 0 0 1-14.4 1.7c-4.6 0-8.5-1.7-11.7-5.1a17.5 17.5 0 0 1-4.8-12.5c0-12.5 7.8-18.7 23.5-18.7 2.1 0 4.6.2 7.4.5l28.3 3.8a250 250 0 0 0 69.3-.6l24-3.2a76 76 0 0 1 7.5-.5c15.6 0 23.5 6.2 23.5 18.7 0 5-1.6 9.1-4.8 12.5-3.2 3.4-7.1 5-11.8 5-3.5 0-8.3-.5-14.4-1.5-2.5-.7-6.2-1.1-11.2-1.1-18.1 0-27.2 13.2-27.2 39.5V1460c0 26.7 9.1 40 27.2 40 2.9 0 6.6-.3 11.2-1 6.8-1.1 11.6-1.6 14.4-1.6 11 0 16.6 5.7 16.6 17 0 12.8-7.9 19.2-23.5 19.2h-3.7c-1.5-.3-2.7-.5-3.8-.5l-27.7-4.3a193 193 0 0 0-29.3-2.1c-15 0-28.3.9-40 2.7l-24.6 3.7-3.7.5h-4.3c-15.3 0-22.9-6.4-22.9-19.2 0-11.3 5.5-17 16.5-17 1.8 0 6.6.3 14.4 1a42 42 0 0 0 11.2 1.6c18.2 0 27.2-13.3 27.2-40v-213.8Zm294.4-33.1 82.2 269.9 90.1-287.5c4.6-15 12.6-22.4 24-22.4h2.7c3.5 0 8.1.5 13.8 1.6a76.3 76.3 0 0 0 13.9 2.7c5.7.7 13.5 1 23.5 1 10.6 0 19-.5 25-1.6l18.7-3.2c1-.3 3.2-.5 6.4-.5 16.4 0 24.5 6.1 24.5 18.4 0 11.2-5.7 16.8-17 16.8-2.9 0-7-.4-12.6-1-5.5-.8-9.7-1.1-12.5-1.1-18.1 0-27.2 13.3-27.2 40V1460c0 26.7 8.9 40 26.7 40 3.5 0 7.4-.5 11.7-1.6 7.8-.7 12.4-1 13.9-1 11.3 0 17 5.7 17 17 0 12.8-7.6 19.2-22.9 19.2l-8-1a555.6 555.6 0 0 0-62.4-4.3c-16.7 0-32.7 1.2-48 3.7-6.4 1.1-12 1.6-17 1.6-14 0-20.9-6-20.9-17.8 0-12.3 7.2-18.4 21.5-18.4 3.6 0 6.3.2 8.1.7a199 199 0 0 0 14 1.4c12.9 0 21-13.3 24.2-40 .7-5.7 1-23.8 1-54.4 0-11.7.4-28.8 1.1-51.2v-142.4c0-2.1-.9-3.2-2.7-3.2-1 0-2.1 1-3.2 3.2l-98.1 305c-4.3 13.6-14.2 20.3-29.9 20.3a41 41 0 0 1-20.5-4c-4.4-2.6-8-8-10.4-16.3l-96.5-305c-1.1-2.1-2.3-3.2-3.8-3.2-1.4 0-2.1 1-2.1 3.2l3.7 247c.4 26 7.4 38.9 21.2 38.9H359c13.8 0 20.6 6 20.6 18.1 0 12-7 18.1-21.3 18.1a87 87 0 0 1-11.2-1c-7.8-1.1-16.2-2.3-25-3.8-7.2-1-16.2-1.6-27.3-1.6-19.5 0-32.1.6-37.8 1.6l-22.4 4.3c-.7 0-1.8.2-3.2.5h-3.2c-16.4 0-24.6-6.2-24.6-18.6 0-5 1.6-9.2 4.8-12.6 3.2-3.3 7.1-5 11.8-5 3.9 0 8.5.5 13.8 1.6a76 76 0 0 0 11.8 1.6c18.1 0 27.2-13.4 27.2-40v-214.4c0-26.7-9.1-40-27.2-40-2.9 0-7.1.3-12.8 1-5.7.7-10 1.1-12.8 1.1-11 0-16.6-5.6-16.6-16.8 0-12.3 8-18.4 24-18.4 1.5 0 3.8.2 7 .5l18.6 2.2c9.3 1 18 1.6 26.2 1.6 6.7 0 15.9-.7 27.4-2.2 11.6-1.4 20-2.1 25.4-2.1 13.8 0 23 8.7 27.7 26.1l3.7 13.9Zm613.9 257.6-19.2-52.3c-2.1-5.7-4.4-9.2-6.7-10.6-2.3-1.5-7-2.2-14.1-2.2h-95c-7 0-12 1.3-14.6 3.8a65.3 65.3 0 0 0-10.4 20.2l-15.5 41.1c-1.4 4-2.1 7.6-2.1 11.2 0 11.4 7 17 20.8 17 3.6 0 8.6-.3 15.2-1s11.5-1 14.7-1c14.5 0 21.8 6.2 21.8 18.6 0 11.7-8 17.6-24 17.6-2.8 0-6.7-.4-11.7-1l-26.7-3c-5-.5-13.1-.8-24.5-.8-12.4 0-21.2.3-26.1.8l-22.4 2.4a257 257 0 0 1-21.9 1.6c-13.9 0-20.8-5.9-20.8-17.6 0-12.4 6.8-18.7 20.3-18.7 2.8 0 5 .7 6.4 2.2h6.9c9.6 0 16.9-3.8 21.9-11.3 2.1-2.8 5.7-11.2 10.6-25.1l99.2-269.2c5.7-15 17-22.4 33.6-22.4 16.4 0 27.2 7.4 32.6 22.4l95.4 264.5c6 16.7 11.6 27.7 16.6 33 5 5.4 12 8 21.3 8 2.8 0 5-.2 6.4-.6l15-1.5c13.4 0 20.2 5.9 20.2 17.6 0 12.5-6.8 18.7-20.3 18.7-3.9 0-9-.4-15.4-1a499.6 499.6 0 0 0-50.2-3.8 866 866 0 0 0-64 3.8c-7.4.7-13.1 1-17 1-14.3 0-21.4-6-21.4-18.1 0-12.1 7.9-18.2 23.5-18.2 3.2 0 8 .4 14.1 1.1 6.3.7 11 1 14.2 1 11.7 0 17.6-4.7 17.6-14.3 0-1.5-1.5-6-4.3-13.9ZM939.2 1362l-48-147.2-49 147.2c-.8 2.1-1.1 3.4-1.1 3.7 0 3.2 2.6 4.8 8 4.8h84.8c4.2 0 6.4-1.4 6.4-4.2 0-.7-.4-2.2-1.1-4.3Zm229.8 178.1c-9.2 0-17-3.3-23.4-9.8a32.8 32.8 0 0 1-9.6-23.8c0-9.2 3.2-17.1 9.6-23.7a31.5 31.5 0 0 1 23.5-9.9c9.2 0 17 3.3 23.4 9.9a32.8 32.8 0 0 1 9.6 23.7 33 33 0 0 1-9.6 23.8 31.5 31.5 0 0 1-23.4 9.8Z"/><path fill-rule="nonzero" d="M1234.1 1574.8a29 29 0 0 1-9.6 20.8 49.4 49.4 0 0 0 29.5 10.7c20 0 34.5-5.9 43.2-17.6 8.8-11.7 13.2-30.5 13.2-56.4V1365c0-31.3-.9-50.5-2.7-57.8-1.7-7.3-6.5-10.9-14.4-10.9-3.9 0-8.9.6-14.9 1.8-3.2 1-6.4 1.4-9.6 1.4-11.4 0-17-5.8-17-17.3 0-12 7.4-17.9 22.3-17.9 5.4 0 10 .2 13.9.7 11.4 1.3 19.4 2 24 2 2.8 0 7.3-.5 13.3-1.4 6-.9 10.5-1.3 13.4-1.3 10.3 0 15.4 5.7 15.4 17 0 1.8-.1 5.4-.5 10.7-.4 6.4-.5 11.6-.5 15.5-.4 5.7-1 18.5-1.6 38.4-.4 22.4-.6 39.6-.6 51.7v120.6a305 305 0 0 1-2.6 47.4 93.9 93.9 0 0 1-19.3 42.7c-17.1 20.6-41 31-71.7 31a86.8 86.8 0 0 1-53.5-16 48.2 48.2 0 0 1-21.4-40c0-9 2.6-16.3 7.7-22.2a24.8 24.8 0 0 1 19.5-8.8c6.8 0 12.5 2.2 17.3 6.7 4.8 4.4 7.2 9.7 7.2 15.7Zm89.6-338.1c-8.1 0-15.2-3-21-8.8a28.7 28.7 0 0 1-8.8-21.1c0-8.2 2.9-15.1 8.8-20.8a29.2 29.2 0 0 1 21-8.5c8.2 0 15.3 2.9 21.4 8.8a28.3 28.3 0 0 1 0 41.6 30 30 0 0 1-21.4 8.8Zm206.6 18.6c23.8 0 43.6 6.3 59.6 18.7v-2.1c0-13.2 5.7-19.8 17-19.8 11.8 0 17.6 5.7 17.6 17.1 0 2.1-.3 7.5-.9 16a129.8 129.8 0 0 0-.4 40c.9 8.2 1.3 14.4 1.3 18.7 0 13.5-5.7 20.2-17.3 20.2-11.2 0-17-5.7-17.3-17v-17.6c-.4-10.7-6.6-19.9-18.5-27.5-12-7.6-26-11.5-42-11.5a66.5 66.5 0 0 0-41.3 12.6 37.8 37.8 0 0 0-16.6 31.2c0 22.7 15.7 36.2 47 40.5l31 4.3c60.7 8.1 91 33.2 91 75.2a76 76 0 0 1-29.2 62.1c-19.5 15.8-45 23.7-76.6 23.7-29.4 0-55-8.3-76.6-25v10.1c0 12.8-6 19.2-18.1 19.2-13.2 0-19.7-7.3-19.7-21.9 0 2.5 1-6.7 3.2-27.7a128.2 128.2 0 0 0-1-39 93.5 93.5 0 0 1-2.2-17.5c0-12.5 5.7-18.7 17-18.7 7.5 0 12.2 1.8 14.2 5.3 2 3.6 3 13 3.4 28.3.4 15.3 8.4 27.7 24 37.3a113 113 0 0 0 59.8 14.4 68 68 0 0 0 43.2-13.3 41 41 0 0 0 17-33.6c0-24.2-19.2-38.2-57.6-42.1-36.6-4-64.5-11.1-83.7-21.6-19.2-10.5-28.8-29-28.8-55.2 0-25 9.4-45.1 28.2-60.6 18.8-15.4 43.2-23.2 73.3-23.2Z"/><path fill="red" d="m286.7 423.7 218.2 614.4 315.6-456.6-533.8-157.8Z"/><path fill="red" d="m1354.2 423.7-218.3 614.4-315.6-456.6 533.9-157.8Z"/></svg>