<?xml version="1.0" standalone="no"?>
<!DOCTYPE svg PUBLIC "-//W3C//DTD SVG 20010904//EN"
 "http://www.w3.org/TR/2001/REC-SVG-20010904/DTD/svg10.dtd">
<svg version="1.0" xmlns="http://www.w3.org/2000/svg"
 width="128.000000pt" height="128.000000pt" viewBox="0 0 128.000000 128.000000"
 preserveAspectRatio="xMidYMid meet">
<metadata>
Created by potrace 1.11, written by Peter Selinger 2001-2013
</metadata>
<g transform="translate(0.000000,128.000000) scale(0.100000,-0.100000)"
fill="#000000" stroke="none">
<path d="M339 1088 c59 -106 144 -258 189 -337 45 -79 82 -145 82 -148 0 -15
-89 31 -314 164 -144 85 -267 160 -274 165 -22 19 -14 -9 29 -93 22 -45 38
-84 35 -87 -3 -3 -23 0 -43 6 -20 6 -38 10 -40 9 -1 -2 11 -41 28 -88 17 -46
55 -154 85 -239 124 -347 138 -385 144 -393 4 -4 29 24 55 62 27 39 51 68 54
65 3 -3 24 -44 46 -91 l41 -85 88 263 c49 145 91 267 95 271 3 4 47 -112 96
-257 49 -146 92 -265 95 -265 3 0 23 38 44 85 22 46 43 82 46 80 4 -3 27 -34
51 -70 24 -36 46 -65 49 -65 3 0 22 48 43 108 78 219 136 380 176 492 23 63
41 117 41 121 0 4 -16 3 -36 -2 -19 -6 -39 -9 -44 -7 -4 2 12 43 36 92 24 49
43 90 41 91 -1 1 -130 -74 -287 -166 -157 -93 -293 -169 -302 -169 -14 0 -11
11 19 63 19 34 49 87 65 117 44 79 65 116 161 285 124 219 122 215 98 215 -13
0 -29 -15 -44 -42 -14 -24 -56 -99 -95 -168 -39 -69 -82 -145 -96 -170 -14
-25 -53 -96 -88 -158 -48 -86 -65 -109 -74 -100 -10 12 -194 337 -308 545 -40
73 -56 93 -73 93 -20 0 -10 -21 86 -192z"/>
</g>
</svg>
